<svg width="20" height="20" viewBox="0 0 20 20" fill="none" xmlns="http://www.w3.org/2000/svg">
<path d="M9.58932 18.009C4.94825 18.009 1.16968 14.2304 1.16968 9.58932C1.16968 4.94825 4.94825 1.16968 9.58932 1.16968C14.2304 1.16968 18.009 4.94825 18.009 9.58932C18.009 14.2304 14.2304 18.009 9.58932 18.009ZM9.58932 2.40182C5.62182 2.40182 2.40182 5.63003 2.40182 9.58932C2.40182 13.5486 5.62182 16.7768 9.58932 16.7768C13.5568 16.7768 16.7768 13.5486 16.7768 9.58932C16.7768 5.63003 13.5568 2.40182 9.58932 2.40182Z" fill="white"/>
<path d="M18.2142 18.8302C18.0581 18.8302 17.902 18.7727 17.7788 18.6495L16.1359 17.0067C15.8977 16.7684 15.8977 16.3742 16.1359 16.1359C16.3742 15.8977 16.7684 15.8977 17.0067 16.1359L18.6495 17.7788C18.8877 18.017 18.8877 18.4113 18.6495 18.6495C18.5263 18.7727 18.3702 18.8302 18.2142 18.8302Z" fill="white"/>
</svg>
